# xmcd CD database file
#
# Track frame offsets:
#	150
#	5680
#	30676
#	38547
#	63948
#	87921
#	120735
#	135215
#	163205
#	187397
#	210453
#	232688
#
# Disc length: 3636 seconds
#
# Revision: 1
# Processed by: cddbd v1.5.2PL0 Copyright (c) Steve Scherf et al.
# Submitted via: CDex 1.51
#
DISCID=960e320c
DTITLE=Susi Hyldgaard - It's love we need
DYEAR=2008
DGENRE=Jazz
TTITLE0=Nothing but an angel
TTITLE1=Legz on up
TTITLE2=It's love we need
TTITLE3=Awake she is
TTITLE4=Borderline Happiness
TTITLE5=It's love we need
TTITLE6=Simple living
TTITLE7=You have what it takes
TTITLE8=Your favorite fool
TTITLE9=Please forgive me
TTITLE10=Little is better
TTITLE11=Nothing but an angel
EXTD=YEAR: 2008
EXTT0=
EXTT1=
EXTT2=
EXTT3=
EXTT4=
EXTT5=
EXTT6=
EXTT7=
EXTT8=
EXTT9=
EXTT10=
EXTT11=
PLAYORDER=
